<svg xmlns="http://www.w3.org/2000/svg" xmlns:xlink="http://www.w3.org/1999/xlink" width="539" height="613" viewBox="0 0 539 613">
  <defs>
    <clipPath id="clip-Web_1sa920_2">
      <rect width="539" height="613"/>
    </clipPath>
  </defs>
  <g id="Web_1sa920_2" data-name="Web 1sa920 – 2" clip-path="url(#clip-Web_1sa920_2)">
    <rect width="539" height="613" fill="rgba(255,255,255,0)"/>
    <g id="shopping-logo-svgrepo-com" transform="translate(-30.864)">
      <path id="Path_1" data-name="Path 1" d="M495.3,114.394c-2.2-.209-49.067-3.685-49.067-3.685s-32.579-32.49-36.145-36.065c-3.576-3.6-10.558-2.523-13.28-1.7-.387.109-7.1,2.205-18.216,5.632-10.886-31.457-30.066-60.36-63.827-60.36-.934,0-1.9.04-2.871.1C302.3,5.572,290.4,0,280.122,0,201.466,0,163.881,98.839,152.1,149.068c-30.573,9.5-52.305,16.27-55.046,17.164-17.094,5.383-17.62,5.92-19.835,22.07-1.708,12.227-46.355,359.2-46.355,359.2L378.723,613l188.5-40.992S501.063,122.449,500.646,119.36A5.9,5.9,0,0,0,495.3,114.394ZM309.314,96.724c0,1.182-.02,2.294-.02,3.417-19.15,5.969-39.929,12.426-60.8,18.932,11.711-45.392,33.642-67.343,52.841-75.617C306.156,55.632,309.314,73.134,309.314,96.724ZM277.947,21.216a17.615,17.615,0,0,1,10.111,3.427C262.84,36.552,235.833,66.6,224.411,126.561c-16.677,5.185-32.966,10.27-48.054,14.958C189.726,95.76,221.451,21.216,277.947,21.216Zm13.558,267.306s-20.362-10.916-45.3-10.916c-36.612,0-38.459,23.083-38.459,28.884,0,31.735,82.311,43.9,82.311,118.228,0,58.483-36.89,96.128-86.672,96.128-59.715,0-90.267-37.356-90.267-37.356L129.1,430.4S160.484,457.505,187,457.505c17.283,0,24.325-13.707,24.325-23.709,0-41.4-67.532-43.247-67.532-111.275,0-57.222,40.883-112.646,123.442-112.646,31.774,0,47.508,9.168,47.508,9.168Zm38.429-194.8c0-2.1.02-4.142.02-6.4,0-19.527-2.712-35.271-7.042-47.746,17.4,2.175,28.993,22.08,36.453,44.975C350.634,87.3,340.7,90.377,329.934,93.724Z" transform="translate(0)" fill="#95c675"/>
      <path id="Path_2" data-name="Path 2" d="M495.3,114.394c-2.2-.209-49.067-3.685-49.067-3.685s-32.579-32.49-36.145-36.065c-3.576-3.6-10.558-2.523-13.28-1.7-.387.109-7.1,2.205-18.216,5.632-10.886-31.457-30.066-60.36-63.827-60.36-.934,0-1.9.04-2.871.1C302.3,5.572,290.4,0,280.122,0c-78.656,0-98.065,98.839-109.845,149.068-30.573,9.5-54.033,61.771-56.8,62.645-17.074,5.383-17.6,5.92-19.825,22.08C91.93,246.01,30.864,547.5,30.864,547.5L378.723,613l188.5-40.992S501.063,122.449,500.646,119.36A5.9,5.9,0,0,0,495.3,114.394ZM309.314,96.724c0,1.182-.02,2.294-.02,3.417-19.15,5.969-39.929,12.426-60.8,18.932,11.711-45.392,33.642-67.343,52.841-75.617C306.156,55.632,309.314,73.134,309.314,96.724ZM277.947,21.216a17.615,17.615,0,0,1,10.111,3.427C262.84,36.552,235.833,66.6,224.411,126.561c-16.677,5.185-32.966,10.27-48.054,14.958C189.726,95.76,221.451,21.216,277.947,21.216Zm13.558,267.306s-20.362-10.916-45.3-10.916c-36.612,0-38.459,23.083-38.459,28.884,0,31.735,82.311,43.9,82.311,118.228,0,58.483-36.89,96.128-86.672,96.128-59.715,0-90.267-37.356-90.267-37.356L129.1,430.4S160.484,457.505,187,457.505c17.283,0,24.325-13.707,24.325-23.709,0-41.4-67.532-43.247-67.532-111.275,0-57.222,40.883-112.646,123.442-112.646,31.774,0,47.508,9.168,47.508,9.168Zm38.429-194.8c0-2.1.02-4.142.02-6.4,0-19.527-2.712-35.271-7.042-47.746,17.4,2.175,28.993,22.08,36.453,44.975C350.634,87.3,340.7,90.377,329.934,93.724Z" transform="translate(0)" fill="#79b259"/>
      <path id="Path_3" data-name="Path 3" d="M311.8,598.952,500.3,557.97s-66.161-449.559-66.578-452.648a5.879,5.879,0,0,0-5.344-4.966c-2.2-.209-49.067-3.685-49.067-3.685s-32.579-32.49-36.145-36.065c-1.907-1.927-4.758-2.473-7.449-2.493-7.151,12.118-5.671,35.132-5.671,35.132L307.88,598.207Z" transform="translate(66.92 14.038)" fill="#55932c"/>
      <path id="Path_4" data-name="Path 4" d="M291.151,18.224c-.934,0-1.9.04-2.871.1C278.686,5.58,266.786.008,256.506.008c-78.338,0-115.953,98.065-127.882,148.462l24.305-7.539c13.449-45.779,45.144-119.718,101.4-119.718a17.615,17.615,0,0,1,10.111,3.427c-25.149,11.869-52.087,41.806-63.549,101.442l24.136-7.449c11.74-45.1,33.582-66.936,52.712-75.18,4.807,12.187,7.976,29.679,7.976,53.269,0,1.073,0,2.1-.02,3.119l20.64-6.387c0-1.987.02-3.973.02-6.128,0-19.527-2.712-35.271-7.042-47.746,17.342,2.165,28.924,21.981,36.373,44.776l19.249-5.969C344.022,47.019,324.852,18.224,291.151,18.224Z" transform="translate(23.616 0.002)" fill="#4a7a2b"/>
      <path id="Path_5" data-name="Path 5" d="M387.184,97.266c-4.708-.368-7.877-.6-7.877-.6s-32.579-32.49-36.145-36.065c-1.907-1.927-4.758-2.473-7.449-2.493-7.151,12.118-5.672,35.132-5.672,35.132l-22.17,504.963,3.933.745L412.1,577.14Z" transform="translate(66.918 14.038)" fill="#4c822a"/>
    </g>
  </g>
</svg>
